Normalized EMG Linear Envelopes
nRows=222
nColumns=4

endheader
time	 med_gas_r	  soleus_r	 tib_ant_r	
2.59476	  0.009675	  0.022537	  0.028016	
2.62802	  0.009696	  0.023215	  0.027983	
2.66129	  0.009735	  0.023721	  0.027990	
2.69456	  0.009788	  0.023843	  0.028029	
2.72782	  0.009889	  0.023520	  0.028028	
2.76109	  0.010041	  0.022942	  0.027951	
2.79435	  0.010202	  0.022386	  0.027805	
2.82762	  0.010312	  0.022033	  0.027635	
2.86089	  0.010339	  0.021930	  0.027505	
2.89415	  0.010331	  0.021994	  0.027450	
2.92742	  0.010324	  0.022100	  0.027486	
2.96069	  0.010320	  0.022125	  0.027584	
2.99395	  0.010321	  0.022011	  0.027675	
3.02722	  0.010347	  0.021708	  0.027708	
3.06048	  0.010403	  0.021182	  0.027688	
3.09375	  0.010466	  0.020572	  0.027612	
3.12702	  0.010506	  0.020009	  0.027474	
3.16028	  0.010488	  0.019641	  0.027317	
3.19355	  0.010399	  0.019597	  0.027199	
3.22681	  0.010281	  0.019872	  0.027136	
3.26008	  0.010159	  0.020364	  0.027149	
3.29335	  0.010003	  0.020891	  0.027267	
3.32661	  0.009796	  0.021300	  0.027510	
3.35988	  0.009603	  0.021562	  0.027856	
3.39315	  0.009508	  0.021811	  0.028214	
3.42641	  0.009547	  0.022170	  0.028500	
3.45968	  0.009704	  0.022635	  0.028655	
3.49294	  0.009926	  0.023129	  0.028690	
3.52621	  0.010168	  0.023444	  0.028631	
3.55948	  0.010373	  0.023471	  0.028511	
3.59274	  0.010487	  0.023283	  0.028332	
3.62601	  0.010484	  0.023067	  0.028072	
3.65927	  0.010390	  0.022884	  0.027745	
3.69254	  0.010251	  0.022740	  0.027412	
3.72581	  0.010082	  0.022589	  0.027134	
3.75907	  0.009882	  0.022335	  0.026958	
3.79234	  0.009673	  0.021881	  0.026887	
3.8256	  0.009465	  0.021311	  0.026931	
3.85887	  0.009253	  0.020806	  0.027065	
3.89214	  0.009051	  0.020543	  0.027245	
3.9254	  0.008888	  0.020599	  0.027404	
3.95867	  0.008787	  0.020918	  0.027486	
3.99194	  0.008757	  0.021354	  0.027502	
4.0252	  0.008771	  0.021758	  0.027523	
4.05847	  0.008832	  0.022017	  0.027629	
4.09173	  0.008937	  0.022082	  0.027873	
4.125	  0.009109	  0.022014	  0.028234	
4.15827	  0.009386	  0.021864	  0.028639	
4.19153	  0.009782	  0.021653	  0.029038	
4.2248	  0.010273	  0.021503	  0.029396	
4.25806	  0.010792	  0.021486	  0.029670	
4.29133	  0.011246	  0.021583	  0.029854	
4.3246	  0.011540	  0.021656	  0.029860	
4.35786	  0.011579	  0.021545	  0.029503	
4.39113	  0.011324	  0.021228	  0.028618	
4.4244	  0.010847	  0.020722	  0.027152	
4.45766	  0.010260	  0.019999	  0.025186	
4.49093	  0.009631	  0.019036	  0.022847	
4.52419	  0.009048	  0.018016	  0.020310	
4.55746	  0.008559	  0.017091	  0.017809	
4.59073	  0.008206	  0.016358	  0.015795	
4.62399	  0.008077	  0.016019	  0.015154	
4.65726	  0.008271	  0.016424	  0.017217	
4.69052	  0.008845	  0.017950	  0.023632	
4.72379	  0.009854	  0.021068	  0.036341	
4.75706	  0.011389	  0.026350	  0.057379	
4.79032	  0.013554	  0.034233	  0.088533	
4.82359	  0.016389	  0.044839	  0.130598	
4.85685	  0.019916	  0.057952	  0.182386	
4.89012	  0.024114	  0.072840	  0.239968	
4.92339	  0.028859	  0.088433	  0.297343	
4.95665	  0.033956	  0.103919	  0.349506	
4.98992	  0.039156	  0.119861	  0.394188	
5.02319	  0.044219	  0.136823	  0.429354	
5.05645	  0.048857	  0.155321	  0.454555	
5.08972	  0.052956	  0.175767	  0.473527	
5.12298	  0.056663	  0.198651	  0.489174	
5.15625	  0.060168	  0.223829	  0.503979	
5.18952	  0.063345	  0.249848	  0.520426	
5.22278	  0.065782	  0.274732	  0.538219	
5.25605	  0.067383	  0.296335	  0.555841	
5.28931	  0.068186	  0.312223	  0.571448	
5.32258	  0.068155	  0.319737	  0.582261	
5.35585	  0.067448	  0.318472	  0.586564	
5.38911	  0.066451	  0.310371	  0.585869	
5.42238	  0.065476	  0.298108	  0.582644	
5.45565	  0.064788	  0.285027	  0.579243	
5.48891	  0.064394	  0.272092	  0.579372	
5.52218	  0.064378	  0.259642	  0.585151	
5.55544	  0.064916	  0.249458	  0.596214	
5.58871	  0.066165	  0.243417	  0.612598	
5.62198	  0.068014	  0.241595	  0.631399	
5.65524	  0.070003	  0.242894	  0.647824	
5.68851	  0.071741	  0.246650	  0.655829	
5.72177	  0.072777	  0.251806	  0.654612	
5.75504	  0.072832	  0.256543	  0.648864	
5.78831	  0.072349	  0.260737	  0.641429	
5.82157	  0.071994	  0.265621	  0.631453	
5.85484	  0.071843	  0.270341	  0.616991	
5.8881	  0.071867	  0.274820	  0.598952	
5.92137	  0.072428	  0.281492	  0.582728	
5.95464	  0.073380	  0.291275	  0.571990	
5.9879	  0.074438	  0.303393	  0.567155	
6.02117	  0.075499	  0.315538	  0.566945	
6.05444	  0.076181	  0.325112	  0.571876	
6.0877	  0.076244	  0.330781	  0.581193	
6.12097	  0.075584	  0.331893	  0.592277	
6.15423	  0.074414	  0.328802	  0.602806	
6.1875	  0.072963	  0.321798	  0.610076	
6.22077	  0.071490	  0.312460	  0.612896	
6.25403	  0.069953	  0.301867	  0.611959	
6.2873	  0.068375	  0.291719	  0.608972	
6.32056	  0.067213	  0.285046	  0.604170	
6.35383	  0.066700	  0.282796	  0.598802	
6.3871	  0.066901	  0.283127	  0.594064	
6.42036	  0.067715	  0.284112	  0.591307	
6.45363	  0.068756	  0.283623	  0.590871	
6.4869	  0.069351	  0.278830	  0.591794	
6.52016	  0.069197	  0.269697	  0.593119	
6.55343	  0.068524	  0.258606	  0.594293	
6.58669	  0.067727	  0.248033	  0.596456	
6.61996	  0.067209	  0.239577	  0.602984	
6.65323	  0.067059	  0.233140	  0.615748	
6.68649	  0.067247	  0.228682	  0.633519	
6.71976	  0.067983	  0.228746	  0.654067	
6.75302	  0.069099	  0.234956	  0.674482	
6.78629	  0.070426	  0.246239	  0.692325	
6.81956	  0.071601	  0.259565	  0.706132	
6.85282	  0.072512	  0.272387	  0.715575	
6.88609	  0.073259	  0.282636	  0.721950	
6.91935	  0.073924	  0.289521	  0.725227	
6.95262	  0.074232	  0.291978	  0.725969	
6.98589	  0.074107	  0.290282	  0.722504	
7.01915	  0.073799	  0.286841	  0.715251	
7.05242	  0.073543	  0.284208	  0.703774	
7.08569	  0.073319	  0.282595	  0.687063	
7.11895	  0.072983	  0.280749	  0.668224	
7.15222	  0.072395	  0.278120	  0.650928	
7.18548	  0.071446	  0.275016	  0.637199	
7.21875	  0.070226	  0.272268	  0.629199	
7.25202	  0.068688	  0.269374	  0.626059	
7.28528	  0.067355	  0.268045	  0.624715	
7.31855	  0.066894	  0.270847	  0.623270	
7.35181	  0.067478	  0.278261	  0.622193	
7.38508	  0.068696	  0.287704	  0.622189	
7.41835	  0.070083	  0.295883	  0.622636	
7.45161	  0.071112	  0.300252	  0.623550	
7.48488	  0.071145	  0.299101	  0.625449	
7.51815	  0.070078	  0.292811	  0.629786	
7.55141	  0.068537	  0.284419	  0.637726	
7.58468	  0.067320	  0.277860	  0.649444	
7.61794	  0.066848	  0.274289	  0.662629	
7.65121	  0.067234	  0.273158	  0.674764	
7.68448	  0.068539	  0.274618	  0.682093	
7.71774	  0.070653	  0.278134	  0.682884	
7.75101	  0.073226	  0.282345	  0.677036	
7.78427	  0.075601	  0.285234	  0.664755	
7.81754	  0.077391	  0.287294	  0.647483	
7.85081	  0.078365	  0.289369	  0.627255	
7.88407	  0.078203	  0.289640	  0.607260	
7.91734	  0.076808	  0.286527	  0.588452	
7.9506	  0.074401	  0.281021	  0.570420	
7.98387	  0.071683	  0.275683	  0.555037	
8.01714	  0.069197	  0.271626	  0.545371	
8.0504	  0.067266	  0.269858	  0.543542	
8.08367	  0.065940	  0.270429	  0.546055	
8.11694	  0.065129	  0.272220	  0.550731	
8.1502	  0.065020	  0.274537	  0.557833	
8.18347	  0.065731	  0.276189	  0.566913	
8.21673	  0.066977	  0.276215	  0.577347	
8.25	  0.068408	  0.274592	  0.585635	
8.28327	  0.069795	  0.271636	  0.588330	
8.31653	  0.070889	  0.268076	  0.585368	
8.3498	  0.071414	  0.264273	  0.581186	
8.38306	  0.071405	  0.259875	  0.577185	
8.41633	  0.071399	  0.256439	  0.574101	
8.4496	  0.071899	  0.256846	  0.574679	
8.48286	  0.073285	  0.263385	  0.578188	
8.51613	  0.075880	  0.276629	  0.583180	
8.5494	  0.079386	  0.293867	  0.589244	
8.58266	  0.083324	  0.312235	  0.595015	
8.61593	  0.087039	  0.328601	  0.600422	
8.64919	  0.089817	  0.340298	  0.606266	
8.68246	  0.091553	  0.347801	  0.613294	
8.71573	  0.092137	  0.350293	  0.618544	
8.74899	  0.091335	  0.346751	  0.617190	
8.78226	  0.089872	  0.340827	  0.610917	
8.81552	  0.089062	  0.339141	  0.605338	
8.84879	  0.089771	  0.345695	  0.603223	
8.88206	  0.092328	  0.362288	  0.605758	
8.91532	  0.096271	  0.385496	  0.612046	
8.94859	  0.100536	  0.409223	  0.620549	
8.98185	  0.104146	  0.428544	  0.629123	
9.01512	  0.106233	  0.439983	  0.637642	
9.04839	  0.105918	  0.439556	  0.643569	
9.08165	  0.103069	  0.426922	  0.644735	
9.11492	  0.098473	  0.405682	  0.640921	
9.14819	  0.093020	  0.380221	  0.633752	
9.18145	  0.087508	  0.354929	  0.626249	
9.21472	  0.082498	  0.333005	  0.620082	
9.24798	  0.078339	  0.317024	  0.614359	
9.28125	  0.074974	  0.306540	  0.606079	
9.31452	  0.072129	  0.298361	  0.590958	
9.34778	  0.069428	  0.289041	  0.567411	
9.38105	  0.066782	  0.278483	  0.538903	
9.41431	  0.064319	  0.267805	  0.510721	
9.44758	  0.062042	  0.257657	  0.483992	
9.48085	  0.059678	  0.247547	  0.457084	
9.51411	  0.056792	  0.235820	  0.428570	
9.54738	  0.052959	  0.220058	  0.396084	
9.58065	  0.048171	  0.199222	  0.360178	
9.61391	  0.042852	  0.174513	  0.322451	
9.64718	  0.037534	  0.147973	  0.283743	
9.68044	  0.032644	  0.121882	  0.245104	
9.71371	  0.028448	  0.098143	  0.206563	
9.74698	  0.025028	  0.077534	  0.167222	
9.78024	  0.022375	  0.060527	  0.129166	
9.81351	  0.020504	  0.047799	  0.095650	
9.84677	  0.019221	  0.039421	  0.068719	
9.88004	  0.018207	  0.034539	  0.048758	
9.91331	  0.017169	  0.031704	  0.035180	
9.94657	  0.015989	  0.030104	  0.026852	
